<svg xmlns="http://www.w3.org/2000/svg" width="295.944" height="67.51"><defs><clipPath id="a"><path data-name="長方形 140" fill="#fff" d="M0 0h52.643v51.41H0z"/></clipPath></defs><g fill="#fff"><g data-name="グループ 6441"><path data-name="パス 42563" d="m94.164 15.254 12.87-.7a.878.878 0 0 0 .306-.081.2.2 0 0 0 .126-.189.547.547 0 0 0-.171-.351 2.062 2.062 0 0 0-.387-.333.7.7 0 0 0-.36-.144.309.309 0 0 0-.126.018 1.326 1.326 0 0 1-.333.1q-.171.027-.351.045l-5.098.281.018-1.836a.414.414 0 0 0-.108-.306 1.579 1.579 0 0 0-.522-.252 2.283 2.283 0 0 0-.63-.144q-.234 0-.234.144a.425.425 0 0 0 .054.18 1.424 1.424 0 0 1 .234.792l.018 1.476-5.67.324h-.212a3.416 3.416 0 0 1-.594-.054h-.09q-.126 0-.126.108a1.189 1.189 0 0 0 .117.333 1.467 1.467 0 0 0 .423.513.762.762 0 0 0 .45.09q.09 0 .189-.009t.207-.005Zm5.562 5.67.054 5.49q-.558-.144-1.152-.36t-1.044-.432a1.385 1.385 0 0 0-.558-.18q-.144 0-.144.108 0 .126.279.387a7.3 7.3 0 0 0 .7.567q.423.306.882.594a8.373 8.373 0 0 0 .837.468 1.512 1.512 0 0 0 .54.18.735.735 0 0 0 .558-.288.88.88 0 0 0 .254-.576q0-.108-.009-.234t-.009-.288l-.054-5.49 3.06-.126q.234-.018.441-.054t.207-.216q0-.216-.486-.7l.558-2.324a1.259 1.259 0 0 1 .09-.18.378.378 0 0 0 .054-.2.694.694 0 0 0-.243-.414.847.847 0 0 0-.639-.252h-.144l-6.606.416q-.5-.2-.819-.288a1.911 1.911 0 0 0-.477-.09q-.216 0-.216.144a.525.525 0 0 0 .108.27 1.525 1.525 0 0 1 .2.5q.054.27.09.576l.216 1.8a1.149 1.149 0 0 1 .036.279v.522a.554.554 0 0 1-.036.207.546.546 0 0 0-.018.162.512.512 0 0 0 .189.387 1.458 1.458 0 0 0 .432.27 1.1 1.1 0 0 0 .387.1q.342 0 .342-.324V21.3l-.038-.3Zm3.654-3.492-.414 2.394-5.526.252-.252-2.3Zm2.9 8.712a.454.454 0 0 0 .306-.162 1.807 1.807 0 0 0 .279-.36.684.684 0 0 0 .117-.288.454.454 0 0 0-.162-.306q-.144-.144-.522-.5t-.846-.774q-.468-.423-.927-.819t-.81-.657a1.132 1.132 0 0 0-.477-.261.553.553 0 0 0-.387.252.733.733 0 0 0-.207.414.385.385 0 0 0 .162.252q.81.666 1.593 1.413t1.555 1.598a.441.441 0 0 0 .324.198Zm-8.516-2.718a1.316 1.316 0 0 0 .09-.135.268.268 0 0 0 .036-.135.684.684 0 0 0-.189-.378 2.622 2.622 0 0 0-.432-.423.726.726 0 0 0-.405-.189q-.126 0-.18.252a2.583 2.583 0 0 1-.27.582 6.69 6.69 0 0 1-.963 1.215 17.85 17.85 0 0 1-2.133 1.839q-.288.234-.288.378 0 .09.144.09a2.267 2.267 0 0 0 .566-.198 11.019 11.019 0 0 0 1.126-.585 13.8 13.8 0 0 0 1.431-.972 11.725 11.725 0 0 0 1.467-1.341Zm25.038 2.862 4.41-.126a2.654 2.654 0 0 0 .315-.054.173.173 0 0 0 .153-.18 1.721 1.721 0 0 0-.45-.774l.31-4.518a.561.561 0 0 1 .081-.189.41.41 0 0 0 .063-.225q0-.09-.234-.351a.826.826 0 0 0-.648-.261h-.144l-3.318.18q.594-.432 1.152-.882t1.08-.954l3.222-.216q.45-.036.45-.288a.505.505 0 0 0-.171-.324 1.663 1.663 0 0 0-.4-.306.811.811 0 0 0-.369-.126.251.251 0 0 0-.108.018 1.326 1.326 0 0 1-.333.1q-.171.027-.333.045l-.954.072q.522-.594 1.053-1.251t1.053-1.413a.29.29 0 0 0 .036-.126.618.618 0 0 0-.2-.4 2.569 2.569 0 0 0-.432-.378.737.737 0 0 0-.378-.162q-.18 0-.18.342a1.237 1.237 0 0 1-.234.774q-.558.756-1.116 1.431t-1.126 1.272l-.648.054.018-2 2.018-.142a.738.738 0 0 0 .288-.09.22.22 0 0 0 .126-.2.467.467 0 0 0-.171-.279 1.723 1.723 0 0 0-.4-.3.877.877 0 0 0-.4-.126.374.374 0 0 0-.144.018 2.01 2.01 0 0 1-.324.072l-.288.036-.7.054.018-1.89a.47.47 0 0 0-.126-.333.874.874 0 0 0-.45-.207 2.5 2.5 0 0 0-.594-.108q-.216 0-.216.126a.566.566 0 0 0 .072.2 1.277 1.277 0 0 1 .162.423 2.362 2.362 0 0 1 .036.4l.018 1.458-1.566.108a.592.592 0 0 1-.144.018h-.144a3.413 3.413 0 0 1-.828-.108h-.072a.1.1 0 0 0-.108.108.251.251 0 0 0 .018.108 1.3 1.3 0 0 0 .423.72 1 1 0 0 0 .5.126q.126 0 .288-.009t.342-.027l1.3-.09.018 1.98-3.132.216h-.216a2.7 2.7 0 0 1-.315-.018 1.263 1.263 0 0 1-.3-.072.2.2 0 0 0-.09-.018.1.1 0 0 0-.108.108.2.2 0 0 0 .018.09 2.98 2.98 0 0 0 .306.657.571.571 0 0 0 .5.207h.18a1.212 1.212 0 0 0 .2-.018l3.6-.234a26.779 26.779 0 0 1-2.43 1.989q-1.287.935-2.763 1.875-.4.27-.4.45 0 .144.2.144a1.632 1.632 0 0 0 .549-.2q.405-.2.909-.477t.918-.531q.414-.252.576-.342l.126 4.41v.27a5.359 5.359 0 0 1-.054.792.4.4 0 0 0-.018.126.505.505 0 0 0 .333.441 1.3 1.3 0 0 0 .567.171q.288 0 .288-.324v-.056Zm6.75-11.3-.072 10.238q0 .5-.036.891t-.126.873a.3.3 0 0 1-.009.072.3.3 0 0 0-.009.072.49.49 0 0 0 .216.387 1.637 1.637 0 0 0 .468.261 1.257 1.257 0 0 0 .378.09q.288 0 .288-.414l-.054-13.41 2.916-.18a16.351 16.351 0 0 1-.792 1.557q-.414.711-.882 1.467a1.216 1.216 0 0 0-.2.576.689.689 0 0 0 .234.486q.432.414.909.945a5.382 5.382 0 0 1 .81 1.2 3.377 3.377 0 0 1 .333 1.53 2.928 2.928 0 0 1-.027.4q-.027.2-.063.4a.128.128 0 0 1-.126.09.2.2 0 0 1-.09-.018q-.5-.144-.981-.3a9.678 9.678 0 0 1-1-.387 1.811 1.811 0 0 0-.522-.144q-.18 0-.18.126a.683.683 0 0 0 .261.414 5.566 5.566 0 0 0 .657.531q.4.279.828.531a7.949 7.949 0 0 0 .8.414 1.558 1.558 0 0 0 .549.162.806.806 0 0 0 .387-.153 1.269 1.269 0 0 0 .432-.585 3.208 3.208 0 0 0 .191-1.25 5.04 5.04 0 0 0-.288-1.809 4.716 4.716 0 0 0-.765-1.323 12.493 12.493 0 0 0-1.071-1.134.4.4 0 0 1-.144-.252.161.161 0 0 1 .027-.081.5.5 0 0 0 .045-.1 17.68 17.68 0 0 0 1.152-1.827q.45-.837.675-1.35t.225-.531a.349.349 0 0 0-.171-.3 1.648 1.648 0 0 0-.369-.189.973.973 0 0 0-.288-.072h-.18l-3.15.234a7.163 7.163 0 0 0-.9-.351 2.054 2.054 0 0 0-.522-.1q-.234 0-.234.18a.95.95 0 0 0 .09.324 7.05 7.05 0 0 1 .261.738 3.876 3.876 0 0 1 .119 1.067ZM126.42 20.6l-.09 1.71-3.654.126-.054-1.656Zm-.144 2.664-.108 1.908-3.4.126-.054-1.89Zm25.686 3.564 6.478-.216a2.813 2.813 0 0 0 .324-.045.143.143 0 0 0 .126-.153.58.58 0 0 0-.09-.252 2.825 2.825 0 0 0-.324-.432l.364-5.13a1.278 1.278 0 0 1 .054-.162.481.481 0 0 0 .036-.18.534.534 0 0 0-.207-.387.809.809 0 0 0-.567-.189h-.18l-6.246.342q.2-.288.36-.567t.324-.621l8.838-.4q.378-.036.378-.234a.484.484 0 0 0-.162-.315 2.206 2.206 0 0 0-.36-.306.63.63 0 0 0-.324-.135.309.309 0 0 0-.126.018q-.144.036-.315.072a3.293 3.293 0 0 1-.351.054l-5.452.256v-1.17l4.032-.2a.967.967 0 0 0 .252-.063.169.169 0 0 0 .108-.171.492.492 0 0 0-.144-.279 1.921 1.921 0 0 0-.342-.315.618.618 0 0 0-.342-.144.309.309 0 0 0-.126.018q-.18.036-.333.072a2.654 2.654 0 0 1-.315.054l-2.79.144v-.972l5.13-.288a.776.776 0 0 0 .252-.072.173.173 0 0 0 .108-.162.5.5 0 0 0-.144-.3 1.683 1.683 0 0 0-.346-.298.657.657 0 0 0-.36-.135.2.2 0 0 0-.09.018 1.254 1.254 0 0 1-.306.081q-.18.027-.36.045l-2.862.162q.54-.36 1.026-.756a9.379 9.379 0 0 0 .792-.711q.306-.315.306-.423a.555.555 0 0 0-.18-.324 2.748 2.748 0 0 0-.414-.369.736.736 0 0 0-.414-.171q-.2 0-.2.252a1.152 1.152 0 0 1-.117.4 3.46 3.46 0 0 1-.576.783 16.053 16.053 0 0 1-1.5 1.4l-5.04.288h-.216q-.18 0-.369-.018a2.273 2.273 0 0 1-.333-.054.08.08 0 0 1-.036-.009.125.125 0 0 0-.054-.009q-.126 0-.126.108a2.741 2.741 0 0 0 .126.288 1.3 1.3 0 0 0 .414.486.762.762 0 0 0 .45.09q.09 0 .207-.009t.243-.009l3.96-.216v.972l-3.312.18a1.16 1.16 0 0 0-.144.009 1.316 1.316 0 0 1-.162.009 2.7 2.7 0 0 1-.315-.018 1.77 1.77 0 0 1-.279-.054.251.251 0 0 0-.108-.018q-.108 0-.108.09a.3.3 0 0 0 .036.162 2.725 2.725 0 0 0 .189.315 1.722 1.722 0 0 0 .279.315.725.725 0 0 0 .216.072h.162q.126 0 .261-.009t.279-.009l2.988-.144v1.14l-5.832.288h-.2a3.181 3.181 0 0 1-.333-.018 2.289 2.289 0 0 1-.315-.054.2.2 0 0 0-.09-.018q-.108 0-.108.126a2.08 2.08 0 0 0 .072.225 1.165 1.165 0 0 0 .27.414.712.712 0 0 0 .54.207q.09 0 .216-.009t.252-.009l3.114-.144a15.042 15.042 0 0 1-1.439 2.313 23.43 23.43 0 0 1-1.764 2.088 19.311 19.311 0 0 1-1.782 1.665q-.36.288-.36.486 0 .108.144.108a1.859 1.859 0 0 0 .63-.279 10.585 10.585 0 0 0 1.179-.819q.693-.54 1.485-1.3a16.2 16.2 0 0 0 1.53-1.692l.18 4.662v.112a2.631 2.631 0 0 1-.018.324q-.018.144-.054.342a.148.148 0 0 1-.009.045.2.2 0 0 0-.009.063.567.567 0 0 0 .171.432 1.191 1.191 0 0 0 .675.306.371.371 0 0 0 .243-.081.342.342 0 0 0 .1-.279v-.036Zm.7-12.978a.535.535 0 0 0 .4-.252.745.745 0 0 0 .2-.4q0-.126-.243-.333t-.6-.459q-.36-.252-.738-.468t-.657-.36a1.187 1.187 0 0 0-.351-.144.435.435 0 0 0-.324.216.656.656 0 0 0-.162.36q0 .162.234.288a9.994 9.994 0 0 1 .99.648q.486.36.882.7a.672.672 0 0 0 .371.204Zm4.988 6.732-.054 1.1-5.832.27-.036-1.062Zm-.09 1.908-.054 1.1-5.67.27-.036-1.118Zm-.09 1.926-.072 1.332-5.472.18-.054-1.26Zm29-8.028.9-.054q0 1.224-.063 2.556t-.18 2.619q-.119 1.291-.287 2.421a15.358 15.358 0 0 1-.4 1.944q-.018.144-.108.144a.08.08 0 0 1-.036-.009.08.08 0 0 0-.044-.009q-.558-.2-1.152-.468t-1.06-.522a1.2 1.2 0 0 0-.558-.2q-.144 0-.144.126 0 .162.324.486a12.075 12.075 0 0 0 1.152.99 8.938 8.938 0 0 0 1.035.684 1.667 1.667 0 0 0 .657.252.678.678 0 0 0 .369-.108 2.063 2.063 0 0 0 .351-.288 1.388 1.388 0 0 0 .351-.7q.1-.45.207-1.152.18-1.062.324-2.529t.243-3.1q.1-1.629.117-3.159a.8.8 0 0 1 .036-.252.631.631 0 0 0 .036-.2.471.471 0 0 0-.234-.369.813.813 0 0 0-.486-.171h-.144l-5.508.378q.36-.7.675-1.422t.549-1.422a.194.194 0 0 0 .036-.108v-.108a.538.538 0 0 0-.225-.378 2.594 2.594 0 0 0-.5-.342 1 1 0 0 0-.432-.144q-.2 0-.2.234a.246.246 0 0 0 .009.054.3.3 0 0 1 .009.072.34.34 0 0 1 .018.108v.09a4.259 4.259 0 0 1-.216.972q-.216.72-.612 1.71a20.962 20.962 0 0 1-.972 2.07 17.831 17.831 0 0 1-1.278 2.052.963.963 0 0 0-.252.522.08.08 0 0 0 .09.09q.234 0 .7-.45a11.53 11.53 0 0 0 1.017-1.143 13.222 13.222 0 0 0 1-1.449l1.314-.09A19.4 19.4 0 0 1 181.512 20a14.573 14.573 0 0 1-2.016 2.9.9.9 0 0 0-.306.522q0 .09.108.09a.7.7 0 0 0 .36-.144l.441-.3a7 7 0 0 0 1.131-1.037 12.2 12.2 0 0 0 1.458-2.079 18.252 18.252 0 0 0 1.458-3.4l1.116-.09a18.347 18.347 0 0 1-1.822 5.338 19.353 19.353 0 0 1-2.93 4.128q-.324.342-.324.522a.1.1 0 0 0 .108.108.656.656 0 0 0 .324-.126q.2-.126.216-.144a12.637 12.637 0 0 0 3.474-3.924 20.632 20.632 0 0 0 2.16-5.976Zm-9.92 5.76-.018 2.268q-.018.72-.045 1.287t-.081.981a.34.34 0 0 0-.018.108v.09a.607.607 0 0 0 .3.486.941.941 0 0 0 .531.216q.36 0 .36-.414l.072-5.58q.18-.09.612-.333t.918-.54a9.8 9.8 0 0 0 .828-.558q.342-.261.342-.387 0-.09-.144-.09a1.119 1.119 0 0 0-.45.126q-.5.234-1.035.459t-1.071.441l.054-3.636 2.016-.126q.4-.036.4-.288a.492.492 0 0 0-.144-.279 1.7 1.7 0 0 0-.36-.315.774.774 0 0 0-.432-.144.148.148 0 0 0-.045.009.148.148 0 0 1-.045.009 2.954 2.954 0 0 1-.333.081q-.153.027-.3.045l-.742.036.036-3.564a.568.568 0 0 0-.108-.378 1.035 1.035 0 0 0-.468-.234q-.2-.054-.342-.09a1.012 1.012 0 0 0-.234-.036q-.18 0-.18.126a.7.7 0 0 0 .054.2 2.149 2.149 0 0 1 .162.936l-.036 3.114-1.044.072q.27-.828.486-1.692V14.5a.494.494 0 0 0-.234-.378 2.289 2.289 0 0 0-.513-.3 1.222 1.222 0 0 0-.423-.117q-.144 0-.144.162a.993.993 0 0 0 .036.2.668.668 0 0 1 .027.117 1.1 1.1 0 0 1 .009.153 7.808 7.808 0 0 1-.144.954q-.144.774-.45 1.872a18.785 18.785 0 0 1-.81 2.286 2.834 2.834 0 0 0-.108.315.905.905 0 0 0-.036.225q0 .18.108.18.2 0 .756-.792a10.516 10.516 0 0 0 1.1-2.16l1.386-.072-.036 4q-1.116.414-1.773.63a8.849 8.849 0 0 1-1.035.288 3.688 3.688 0 0 1-.684.072h-.162q-.162 0-.162.108a.217.217 0 0 0 .027.072.616.616 0 0 1 .045.126 1.406 1.406 0 0 0 .756.684.8.8 0 0 0 .36.09.586.586 0 0 0 .243-.045.873.873 0 0 1 .189-.063q1.042-.401 2.176-.959Zm27.49 2.538v.09a2.081 2.081 0 0 0 .072.225 1.435 1.435 0 0 0 .225.405.487.487 0 0 0 .4.2.479.479 0 0 0 .216-.054 20.99 20.99 0 0 0 3.024-1.611 31.414 31.414 0 0 0 2.773-1.991 26.317 26.317 0 0 0 2.268-2.034 16.379 16.379 0 0 0 1.53-1.755 2.353 2.353 0 0 0 .558-1.143q0-.216-.144-.216-.216 0-.54.4a13.83 13.83 0 0 1-1.656 1.737 29.412 29.412 0 0 1-2.331 1.89q-1.287.945-2.61 1.755a23.349 23.349 0 0 1-2.511 1.35q0-.612.009-1.548t.009-1.98V15.65a1.093 1.093 0 0 0-.072-.423.649.649 0 0 0-.378-.3 2.407 2.407 0 0 0-.792-.18q-.342 0-.342.162v.018a.579.579 0 0 0 .171.36.771.771 0 0 1 .171.522v8.424a.835.835 0 0 1-.027.234.758.758 0 0 0-.023.219Zm25.488-9.45a.435.435 0 0 0-.09.288q0 .288.36.432a7.98 7.98 0 0 1 .855.369q.5.243 1.026.54t.981.585q.45.288.7.486a.5.5 0 0 0 .306.108.548.548 0 0 0 .513-.333 1.256 1.256 0 0 0 .171-.513.513.513 0 0 0-.288-.432 10.067 10.067 0 0 0-1.044-.6q-.648-.333-1.305-.621t-1.143-.477a2.861 2.861 0 0 0-.576-.189q-.272-.003-.47.357Zm1.922 10.008a23.118 23.118 0 0 0 3.582-1.764 27.167 27.167 0 0 0 2.988-2.088 26.315 26.315 0 0 0 2.286-2.061 14.453 14.453 0 0 0 1.458-1.7 2.392 2.392 0 0 0 .5-.972q0-.162-.144-.162-.288 0-.738.558a10.5 10.5 0 0 1-1.053 1.053q-.765.693-1.863 1.548t-2.376 1.7a28.723 28.723 0 0 1-2.592 1.53 12.691 12.691 0 0 1-2.5 1.008 2.011 2.011 0 0 1-.324.072 1.969 1.969 0 0 1-.234.018 1.234 1.234 0 0 1-.234-.018.834.834 0 0 0-.162-.018.323.323 0 0 0-.162.054.19.19 0 0 0-.072.162 1.044 1.044 0 0 0 .171.477 2.259 2.259 0 0 0 .423.531.721.721 0 0 0 .468.234 1.408 1.408 0 0 0 .578-.162Zm24.66 1.256v.058q.036.09.252.09a1.808 1.808 0 0 0 .648-.162 14.225 14.225 0 0 0 2.25-1.278 21.326 21.326 0 0 0 2.394-1.917 27.278 27.278 0 0 0 2.331-2.43 24.9 24.9 0 0 0 2.061-2.8A18.41 18.41 0 0 0 267.612 15a.481.481 0 0 1 .09-.126.481.481 0 0 0 .09-.126.986.986 0 0 0 .054-.126.34.34 0 0 0 .018-.108.576.576 0 0 0-.279-.414.921.921 0 0 0-.567-.216q-.054 0-.45.045l-.963.108q-.567.063-1.17.135t-1.08.126q-.477.054-.657.072a1.991 1.991 0 0 0-.549-.576 1.084 1.084 0 0 0-.567-.252.29.29 0 0 0-.126.036.321.321 0 0 0-.072.234v.342q-.018.126-.036.234a.64.64 0 0 1-.054.18 19.492 19.492 0 0 1-1.314 1.782q-.7.846-1.377 1.539t-1.2 1.17q-.522.477-.774.693a1.95 1.95 0 0 0-.243.252.427.427 0 0 0-.117.252.142.142 0 0 0 .018.09.273.273 0 0 0 .216.108 1.725 1.725 0 0 0 .738-.342q.522-.342 1.179-.864t1.251-1.08a7.684 7.684 0 0 1 1.008.648q.558.414 1.107.864t1 .828a26.9 26.9 0 0 1-2.2 2.349 27.774 27.774 0 0 1-2.124 1.827 19.991 19.991 0 0 1-1.782 1.242 1.6 1.6 0 0 0-.45.333.444.444 0 0 0-.12.241Zm6.372-11.07h.126q.2-.018.729-.081l1.287-.153q.756-.09 1.584-.162a18.957 18.957 0 0 1-1.206 2.366 25.62 25.62 0 0 1-1.44 2.142q-.36-.306-.909-.693t-1.134-.774q-.585-.387-1.071-.657.45-.468.891-.972t.855-1.062a.815.815 0 0 0 .288.05Zm25.218 9.4v.07a1.07 1.07 0 0 0 .09.27 1.542 1.542 0 0 0 .261.414.489.489 0 0 0 .369.2 1.9 1.9 0 0 0 .54-.3q.45-.3 1.125-.828t1.467-1.233q.792-.7 1.593-1.53a20.742 20.742 0 0 0 1.485-1.71 11.186 11.186 0 0 0 1.134-1.764 1.343 1.343 0 0 0 .18-.612q0-.2-.126-.2-.162 0-.558.468a18.651 18.651 0 0 1-1.836 2.133 29.536 29.536 0 0 1-2.223 2.025q-1.161.954-2.241 1.674v-1.611q0-.981.009-2.079l.018-2.088q.009-.988.009-1.665V15.29a1.047 1.047 0 0 0-.081-.432.679.679 0 0 0-.387-.306 2.214 2.214 0 0 0-.81-.162q-.27 0-.27.108v.018a.745.745 0 0 0 .162.4 1.02 1.02 0 0 1 .162.594v3.582q0 1.26-.009 2.628t-.009 2.664a.857.857 0 0 1-.027.225.856.856 0 0 0-.027.221Zm-1.584-7.578v-.126a.493.493 0 0 0-.108-.369.9.9 0 0 0-.342-.171q-.126-.036-.351-.081a2.086 2.086 0 0 0-.4-.045q-.216 0-.234.072a.251.251 0 0 0-.018.108.54.54 0 0 0 .108.315.8.8 0 0 1 .108.459v.072a13.931 13.931 0 0 1-.513 2.88 14.091 14.091 0 0 1-.9 2.313 11.212 11.212 0 0 1-1.053 1.728 11.343 11.343 0 0 1-.973 1.143.917.917 0 0 0-.378.594.127.127 0 0 0 .144.144 1.058 1.058 0 0 0 .554-.288 13.512 13.512 0 0 0 1.287-1.179 10.251 10.251 0 0 0 1.341-1.755 11.711 11.711 0 0 0 1.125-2.475 13.387 13.387 0 0 0 .603-3.339Z"/><path data-name="パス 42564" d="M99.252 43.352a1.233 1.233 0 0 0-.336-.576q-.336-.408-.816-.9t-.972-.948l-.8-.744a.687.687 0 0 0-.432-.216.747.747 0 0 0-.492.228.643.643 0 0 0-.252.468.594.594 0 0 0 .216.384q.6.6 1.248 1.344t1.172 1.488a2.243 2.243 0 0 0 .228.24.339.339 0 0 0 .228.1.723.723 0 0 0 .444-.18 2.584 2.584 0 0 0 .4-.384.6.6 0 0 0 .164-.304Zm3.12-.192 10.224-.6a1.217 1.217 0 0 0 .432-.108.269.269 0 0 0 .168-.252.82.82 0 0 0-.192-.384 2.581 2.581 0 0 0-.456-.48.835.835 0 0 0-.528-.216.556.556 0 0 0-.108.012 1.11 1.11 0 0 0-.132.036 3.293 3.293 0 0 1-.792.144l-8.976.5q-.12 0-.24.012t-.24.012q-.168 0-.312-.012t-.312-.036a.453.453 0 0 0-.144-.024h-.124q-.24 0-.24.12a1.643 1.643 0 0 0 .228.444 2.233 2.233 0 0 0 .54.612 1.6 1.6 0 0 0 .912.216Zm2.088 6.24 6.168-.288a3.478 3.478 0 0 0 .512-.072q.2-.048.2-.216a1.816 1.816 0 0 0-.5-.84l.432-2.352q.048-.144.1-.252a.555.555 0 0 0 .048-.228.7.7 0 0 0-.28-.492.945.945 0 0 0-.66-.252h-.216l-6.24.36a8.94 8.94 0 0 0-1.032-.264 3.861 3.861 0 0 0-.6-.072q-.288 0-.288.144a.581.581 0 0 0 .144.312 2.359 2.359 0 0 1 .384 1.08l.312 2.5a1.034 1.034 0 0 0 .012.168 1.034 1.034 0 0 1 .012.168q0 .1-.012.216t-.036.264v.1a.543.543 0 0 0 .252.48 1.74 1.74 0 0 0 .528.24 1.972 1.972 0 0 0 .348.072q.408 0 .408-.576Zm-7.968 2.472-.144 6.144q0 .168-.024.54t-.06.768a6.28 6.28 0 0 1-.084.636.266.266 0 0 1-.012.084.266.266 0 0 0-.012.084.751.751 0 0 0 .24.516 1.9 1.9 0 0 0 .528.4 1.113 1.113 0 0 0 .456.144q.408 0 .408-.7l.024-8.88q.48.528.888 1.044t.768 1.048q.264.336.432.336a.526.526 0 0 0 .42-.236 1.89 1.89 0 0 0 .276-.468 1.337 1.337 0 0 0 .1-.288 1.275 1.275 0 0 0-.4-.66q-.4-.444-.924-.96t-.96-.9q-.432-.384-.5-.456.788-1.1 1.364-2.068t.888-1.608a3.582 3.582 0 0 0 .312-.732 1.1 1.1 0 0 0-.236-.46.879.879 0 0 0-.768-.336h-.18a1.164 1.164 0 0 0-.228.024l-4.824.48a1.221 1.221 0 0 1-.24.024h-.24a5.393 5.393 0 0 1-.888-.072h-.12q-.192 0-.192.144a1 1 0 0 0 .048.168q.384.864.768 1.02a1.727 1.727 0 0 0 .552.156 3.39 3.39 0 0 0 .4-.024q.2-.024.444-.048l3.72-.384a24.221 24.221 0 0 1-2.772 4.62 39.894 39.894 0 0 1-3.42 3.9 1.114 1.114 0 0 0-.408.672q0 .144.168.144a2.469 2.469 0 0 0 .888-.5 20.885 20.885 0 0 0 1.648-1.372 21.954 21.954 0 0 0 1.896-1.944Zm13.2-6.192-.288 2.256-5.064.264-.216-2.208Zm-6.504 14.16 9.288-.216a4.332 4.332 0 0 0 .492-.06q.18-.036.18-.18 0-.264-.744-1.032l.672-6.168a1.082 1.082 0 0 1 .072-.228.555.555 0 0 0 .048-.228.663.663 0 0 0-.192-.468 1.461 1.461 0 0 0-.408-.312.833.833 0 0 0-.312-.108.556.556 0 0 0-.108.012.556.556 0 0 1-.108.012l-9.312.436a6.643 6.643 0 0 0-1.536-.384q-.264 0-.264.168a.755.755 0 0 0 .1.264 3 3 0 0 1 .252.612 3.558 3.558 0 0 1 .108.756l.308 5.924v.24q0 .264-.012.5t-.036.5V60a.756.756 0 0 0 .228.576 1.376 1.376 0 0 0 .516.312 1.527 1.527 0 0 0 .408.1q.384 0 .384-.5v-.1Zm8.328-7.7-.192 2.376-3.6.12.024-2.336Zm-5.136.216-.024 2.324-3.432.144-.12-2.3Zm4.848 3.336-.24 2.688-3.288.068.024-2.64Zm-4.872.168-.024 2.64-3.216.072-.144-2.592Zm33.432.408 4.56-.192q.624-.048.624-.432a.835.835 0 0 0-.18-.408 1.787 1.787 0 0 0-.48-.468 1.112 1.112 0 0 0-.636-.2 1.323 1.323 0 0 0-.264.048 2.834 2.834 0 0 1-.468.144 4.281 4.281 0 0 1-.564.072l-2.592.1V47.3a30.76 30.76 0 0 0 4.188 5.256 32.485 32.485 0 0 0 5.124 4.116q.12.072.228.132a.463.463 0 0 0 .228.06 1.18 1.18 0 0 0 .54-.18 3.474 3.474 0 0 0 .576-.4q.252-.216.252-.288 0-.12-.336-.312a21.241 21.241 0 0 1-5.484-4.08 57.233 57.233 0 0 1-4.692-5.472l7.392-.408a1.443 1.443 0 0 0 .432-.1.233.233 0 0 0 .168-.216.781.781 0 0 0-.252-.42 3.719 3.719 0 0 0-.588-.516 1.056 1.056 0 0 0-.576-.24.762.762 0 0 0-.216.048 2.127 2.127 0 0 1-.528.132q-.288.036-.528.06l-5.928.336v-4.7a.551.551 0 0 0-.252-.468 1.726 1.726 0 0 0-.576-.264 5.338 5.338 0 0 0-.576-.12l-.252-.036q-.288 0-.288.168a.638.638 0 0 0 .12.288 1.715 1.715 0 0 1 .312 1.032v4.2l-6.5.36h-.36q-.264 0-.516-.024a3.839 3.839 0 0 1-.468-.072.334.334 0 0 0-.144-.024q-.192 0-.192.168a.785.785 0 0 0 .048.192q.312.816.768.96a2.56 2.56 0 0 0 .72.144h.324a3.608 3.608 0 0 0 .4-.024l5.136-.288a35.067 35.067 0 0 1-2.952 4.44 36.836 36.836 0 0 1-3.2 3.592 30.345 30.345 0 0 1-3.1 2.676q-.384.312-.384.5 0 .168.216.168a4.631 4.631 0 0 0 1.236-.54 17.071 17.071 0 0 0 2.512-1.724 26.27 26.27 0 0 0 3.18-3.1 28.543 28.543 0 0 0 3.276-4.644v7.32l-3.24.12a1.546 1.546 0 0 0-.192.012 1.754 1.754 0 0 1-.216.012 3.763 3.763 0 0 1-.912-.12.267.267 0 0 0-.12-.024.085.085 0 0 0-.1.1.334.334 0 0 0 .024.144 2.741 2.741 0 0 0 .192.492 1.773 1.773 0 0 0 .336.492 1.256 1.256 0 0 0 .888.24h.432l2.9-.12v2.424a5.9 5.9 0 0 1-.048.756q-.048.372-.12.732a.532.532 0 0 0-.024.168.632.632 0 0 0 .2.48 2.431 2.431 0 0 0 .516.36 1.16 1.16 0 0 0 .5.144q.48 0 .48-.648Z"/></g><g data-name="logo"><g data-name="logo" transform="translate(9.14)" clip-path="url(#a)"><path data-name="パス 1166" d="m28.009 26.897.023.062a12.728 12.728 0 0 0 7.338 7.49c.081.031.163.061.245.09.2.072.4.134.6.2a12.651 12.651 0 0 0 3.636.542 12.795 12.795 0 0 0 .373-25.584 14.164 14.164 0 0 1-1.892 10.57l-.019.031c-.166.262-.337.519-.52.769-.144.2-.3.393-.451.586-.062.076-.121.157-.186.232a14.306 14.306 0 0 1-9.145 5.016"/><path data-name="パス 1167" d="m26.984 28.552-.043.034a12.732 12.732 0 0 0-4.856 9.288c0 .093-.008.186-.01.279-.008.2 0 .406 0 .61a12.778 12.778 0 0 0 16.73 11.848 12.809 12.809 0 0 0 8.324-15.767 14.169 14.169 0 0 1-10.726 1.446l-.055-.014a14.08 14.08 0 0 1-.851-.254c-.209-.067-.413-.143-.618-.219-.114-.044-.228-.086-.342-.133a14.32 14.32 0 0 1-7.552-7.117"/><path data-name="パス 1168" d="M25.058 28.052a12.727 12.727 0 0 0-10.328-1.749l-.233.064c-.2.058-.4.126-.6.195a12.779 12.779 0 0 0-6.12 19.579 12.811 12.811 0 0 0 17.568 3.045 14.174 14.174 0 0 1-4.689-9.749v-.072a14.11 14.11 0 0 1-.004-1.546c.006-.116.01-.232.021-.348a14.31 14.31 0 0 1 4.434-9.387Z"/><path data-name="パス 1169" d="m24.967 26.147.014-.053a12.719 12.719 0 0 0-1.531-10.37l-.151-.226c-.115-.17-.239-.335-.362-.5a12.656 12.656 0 0 0-2.627-2.58A12.794 12.794 0 0 0 4.972 32.897a14.166 14.166 0 0 1 7.811-7.467l.089-.035c.266-.1.533-.2.8-.284.222-.072.445-.135.669-.2.1-.027.209-.058.315-.083a14.31 14.31 0 0 1 10.306 1.316"/><path data-name="パス 1170" d="M26.765 25.421h.054a12.733 12.733 0 0 0 9.391-4.663c.054-.068.11-.138.163-.208.129-.165.25-.337.37-.507A12.779 12.779 0 0 0 30.169.628a12.81 12.81 0 0 0-16 7.862 14.168 14.168 0 0 1 9.524 5.132l.044.053c.184.227.362.458.533.7.132.181.255.366.379.552.063.1.129.2.191.3a14.314 14.314 0 0 1 1.928 10.2"/></g><path data-name="パス 53625" d="M3.04 60.56H0v6.67h.74v-3.3h2.22v-.7H.74v-1.97h2.3Zm5.04 0h-.74v4.29a2.577 2.577 0 0 0 .42 1.6 2.356 2.356 0 0 0 1.95.9 2.356 2.356 0 0 0 1.95-.9 2.577 2.577 0 0 0 .42-1.6v-4.29h-.74v4.09a1.9 1.9 0 0 1-.53 1.62 1.852 1.852 0 0 1-1.1.38 1.852 1.852 0 0 1-1.1-.38 1.9 1.9 0 0 1-.53-1.62Zm9.46 0h-.74v6.67h.74v-2.87l.19-.19 2.73 3.06h1.02l-3.22-3.56 3.12-3.11h-1l-2.84 2.86Zm8.47 0h-.74v4.29a2.577 2.577 0 0 0 .42 1.6 2.356 2.356 0 0 0 1.95.9 2.356 2.356 0 0 0 1.95-.9 2.577 2.577 0 0 0 .42-1.6v-4.29h-.74v4.09a1.9 1.9 0 0 1-.53 1.62 1.852 1.852 0 0 1-1.1.38 1.852 1.852 0 0 1-1.1-.38 1.9 1.9 0 0 1-.53-1.62Zm9.25 6.67.66-4.64 2.24 4.92 2.27-4.92.63 4.64h.76l-1.04-7.05-2.61 5.64-2.56-5.63-1.11 7.04Zm14.21.12a3.4 3.4 0 0 0 3.47-3.45 3.4 3.4 0 0 0-3.47-3.45A3.4 3.4 0 0 0 46 63.9a3.4 3.4 0 0 0 3.47 3.45Zm0-6.2a2.721 2.721 0 0 1 2.71 2.75 2.721 2.721 0 0 1-2.71 2.75 2.721 2.721 0 0 1-2.71-2.75 2.721 2.721 0 0 1 2.71-2.75Zm10.74.11v-.7h-3.98v.7h1.62v5.97h.74v-5.97Zm6.76 6.09a3.4 3.4 0 0 0 3.47-3.45 3.4 3.4 0 0 0-3.47-3.45 3.4 3.4 0 0 0-3.47 3.45 3.4 3.4 0 0 0 3.47 3.45Zm0-6.2a2.721 2.721 0 0 1 2.71 2.75 2.721 2.721 0 0 1-2.71 2.75 2.721 2.721 0 0 1-2.71-2.75 2.721 2.721 0 0 1 2.71-2.75Z"/></g></g></svg>