<?xml version="1.0" encoding="UTF-8"?>
<svg version="1.1" xmlns="http://www.w3.org/2000/svg" width="200" height="200">
<path d="M0 0 C7.66682462 -0.33080135 15.33180093 -0.55772917 23.00415039 -0.71411133 C25.61096949 -0.77931821 28.2173161 -0.86791339 30.82250977 -0.98071289 C51.88576211 -1.86957651 51.88576211 -1.86957651 57.02255249 1.21420288 C60.53959138 4.57020879 62.16399812 8.53317652 64 13 C65.38411903 15.2290438 66.89518334 17.30982537 68.4375 19.4375 C69.1696875 20.49839844 69.901875 21.55929688 70.65625 22.65234375 C72.31663393 25.03985643 74.00857689 27.40181435 75.71875 29.75390625 C76.17193604 30.37918213 76.62512207 31.00445801 77.09204102 31.64868164 C77.96546587 32.85049269 78.84331415 34.04910598 79.72631836 35.24389648 C82.00353361 38.37949985 83.74610521 41.32739013 85 45 C85.66 45 86.32 45 87 45 C86.39703074 48.67024767 85.36150986 51.65458712 83.75 55 C81.36834772 60.1045155 79.30936887 65.27629952 77.31640625 70.54296875 C73.83935507 79.67409721 70.14644527 88.72234857 66.36328125 97.73046875 C65.28680838 100.31215296 64.22329192 102.89794257 63.16796875 105.48828125 C62.85077881 106.26510254 62.53358887 107.04192383 62.20678711 107.84228516 C61.57669781 109.38671939 60.94855442 110.93194917 60.32250977 112.47802734 C58.11150892 117.88849108 58.11150892 117.88849108 57 119 C57.41357017 123.94459636 58.56950267 127.75344744 60.75 132.1875 C63.20939199 137.31658829 65.48610114 142.46842847 67.625 147.73828125 C68.68225138 150.24624971 69.78339389 152.70486923 70.9375 155.16796875 C71.43358765 156.24437622 71.43358765 156.24437622 71.93969727 157.3425293 C72.59410794 158.75751025 73.26089377 160.16684724 73.94116211 161.56958008 C76.17914435 166.45471653 76.17914435 166.45471653 75.3203125 169.06884766 C73.76286284 171.34684818 72.49013039 172.13265147 70.03515625 173.3671875 C69.24020752 173.77493408 68.44525879 174.18268066 67.6262207 174.6027832 C66.78019287 175.02261475 65.93416504 175.44244629 65.0625 175.875 C63.32787328 176.76122623 61.59349684 177.64794251 59.859375 178.53515625 C59.02083984 178.95941895 58.18230469 179.38368164 57.31835938 179.82080078 C54.45917336 181.27508348 51.63052533 182.78009922 48.8125 184.3125 C47.98105469 184.76367188 47.14960937 185.21484375 46.29296875 185.6796875 C43.99397754 187.00346779 41.82155487 188.45147582 39.625 189.9375 C37.05044618 191.57825049 36.27109341 192 33.125 192 C31 191 31 191 29 188 C28.34 189.32 27.68 190.64 27 192 C23.0785044 192.23682211 20.68362533 191.62581552 17.1875 189.875 C12.54960552 187.6623118 7.88123533 185.76765092 3.0625 184 C-3.70352682 181.51093933 -10.37108448 178.83737672 -17 176 C-16.41201376 171.62276907 -15.32214904 167.94619568 -13.625 163.875 C-13.37967529 163.25955322 -13.13435059 162.64410645 -12.8815918 162.01000977 C-11.02909367 157.38012538 -9.02776029 152.8322319 -6.98046875 148.28515625 C-6.18802237 146.44902393 -5.39563494 144.61285224 -4.61126709 142.77325439 C-3.82956772 140.97672563 -2.99944379 139.20151511 -2.16845703 137.42724609 C0.6608674 130.72402539 1.47630658 126.63800738 -0.98046875 119.66796875 C-1.95131758 117.42950576 -2.9549582 115.20480196 -4 113 C-4.62439598 111.44922743 -5.24060676 109.89509885 -5.84375 108.3359375 C-6.39226575 107.01413888 -6.94429578 105.6937926 -7.5 104.375 C-7.80059326 103.65393066 -8.10118652 102.93286133 -8.41088867 102.18994141 C-9.00610127 100.76276765 -9.60263502 99.33614394 -10.20068359 97.91015625 C-10.87576386 96.29689173 -11.54236033 94.68008102 -12.20703125 93.0625 C-14.61277061 87.2139181 -17.12493156 81.41546367 -19.66162109 75.62280273 C-26.39937698 60.21642368 -26.39937698 60.21642368 -29.1875 53.3125 C-29.57292969 52.35988281 -29.95835938 51.40726563 -30.35546875 50.42578125 C-31.09603155 47.63857216 -31.13247133 46.63575187 -30 44 C-28.61260943 41.87383123 -27.19834356 39.84696033 -25.6875 37.8125 C-24.77800986 36.56426522 -23.86918545 35.31554517 -22.9609375 34.06640625 C-22.47979492 33.40785645 -21.99865234 32.74930664 -21.50292969 32.07080078 C-18.90356063 28.48927895 -16.35954458 24.86882872 -13.8125 21.25 C-12.80212504 19.8150748 -11.79170949 18.38017818 -10.78125 16.9453125 C-10.306875 16.27145508 -9.8325 15.59759766 -9.34375 14.90332031 C-8.14104917 13.19978549 -6.93041959 11.50185484 -5.71875 9.8046875 C-5.0896875 8.92039062 -4.460625 8.03609375 -3.8125 7.125 C-3.01779297 6.01511719 -3.01779297 6.01511719 -2.20703125 4.8828125 C-0.83342786 2.90992228 -0.83342786 2.90992228 0 0 Z M4 5 C4.33 5.66 4.66 6.32 5 7 C6.32 7 7.64 7 9 7 C9.1858667 7.54825439 9.3717334 8.09650879 9.56323242 8.66137695 C14.21066188 22.45181713 14.21066188 22.45181713 19.95703125 35.80859375 C21.07561919 38.15888526 22.03330573 40.58326432 23 43 C26.96 43 30.92 43 35 43 C35.31227539 42.22922119 35.62455078 41.45844238 35.94628906 40.66430664 C37.12299079 37.76196443 38.30104838 34.86017711 39.47998047 31.95874023 C40.23377073 30.102466 40.98604278 28.2455755 41.73828125 26.38867188 C49.35948202 7.64051798 49.35948202 7.64051798 52 5 C36.16 5 20.32 5 4 5 Z M3 7 C-2.60081856 14.11579408 -7.97560762 21.26739103 -12.90234375 28.875 C-14.46824352 31.20781158 -16.06348677 33.44831844 -17.75390625 35.6875 C-18.21990234 36.31148682 -18.68589844 36.93547363 -19.16601562 37.57836914 C-20.0781349 38.79266779 -21.00219599 39.99811238 -21.93945312 41.19311523 C-24.45491606 44.45743343 -24.45491606 44.45743343 -24.7175293 48.41577148 C-24.04261803 50.84650839 -23.26849583 53.13681821 -22.328125 55.4765625 C-21.99594971 56.30663818 -21.66377441 57.13671387 -21.3215332 57.99194336 C-20.96792725 58.86085205 -20.61432129 59.72976074 -20.25 60.625 C-19.88801514 61.5229126 -19.52603027 62.4208252 -19.15307617 63.34594727 C-16.94943755 68.77614934 -14.62520246 74.12770209 -12.14453125 79.4375 C-10.34141164 83.47451866 -8.81220064 87.61114392 -7.25 91.74609375 C-6.05496587 94.85691697 -4.79456547 97.92945252 -3.5 101 C-0.85583038 107.27885357 1.58551124 113.62985945 4 120 C6.53578074 117.46421926 6.89634181 115.43360326 8 112 C8.57277157 110.5374862 9.15738994 109.07958833 9.75 107.625 C11.77218782 102.63644108 13.63712475 97.59478274 15.49145508 92.54223633 C16.95341936 88.6169058 18.51693989 84.75837112 20.19921875 80.921875 C20.75561035 79.64654907 20.75561035 79.64654907 21.32324219 78.34545898 C22.05316967 76.68616942 22.79432707 75.03176426 23.54785156 73.38305664 C23.88139648 72.62371826 24.21494141 71.86437988 24.55859375 71.08203125 C24.86079834 70.41405518 25.16300293 69.7460791 25.47436523 69.05786133 C26.58801908 64.69790392 24.57303465 60.57294381 23.0390625 56.5078125 C22.64976563 55.47269531 22.26046875 54.43757813 21.859375 53.37109375 C21.45203125 52.29988281 21.0446875 51.22867188 20.625 50.125 C20.22539063 49.06152344 19.82578125 47.99804688 19.4140625 46.90234375 C17.79249415 42.6083881 16.17438932 38.32365776 14.3359375 34.1171875 C13.04722613 31.11019429 11.99882338 28.11374091 11 25 C10.19749054 22.62160562 9.38464743 20.24667764 8.5625 17.875 C8.15128906 16.67617188 7.74007812 15.47734375 7.31640625 14.2421875 C6.14983444 11.36902845 4.99701828 9.34052872 3 7 Z M54 9 C50.47247646 16.40658723 47.23207694 23.80495272 44.34765625 31.484375 C42.80075264 35.51977572 41.15804916 39.50932065 39.5 43.5 C36.23081765 51.39064908 33.13680302 59.33669996 30.12158203 67.328125 C26.35327689 77.31059306 22.53783929 87.25846856 18.43408203 97.10839844 C16.72491554 101.2162748 15.08049047 105.34027263 13.5 109.5 C11.58564228 114.53778348 9.56494086 119.52273672 7.5 124.5 C4.99033625 130.55141412 2.57475556 136.62848123 0.25 142.75390625 C-0.89549768 145.72862053 -2.0807766 148.68297983 -3.28051758 151.63598633 C-6.13603373 158.67091543 -8.70790769 165.75968487 -11 173 C-3.29584848 176.41900216 4.3268401 179.55672868 12.36328125 182.12109375 C14.68328209 182.89442736 16.89115894 183.75974056 19.125 184.75 C21.78319268 186.1329087 21.78319268 186.1329087 24 186 C27.12887864 179.35612578 29.95280894 172.65688836 32.55078125 165.7890625 C37.81872563 151.91969998 43.26892319 138.02779912 49.5 124.5625 C51.24606888 120.76472827 52.81887599 116.94229837 54.29296875 113.03125 C56.99940412 105.94275233 59.8902303 98.9392431 62.8125 91.9375 C66.75486182 82.46447353 70.65536754 72.97754118 74.41333008 63.42944336 C74.69974365 62.7050708 74.98615723 61.98069824 75.28125 61.234375 C75.55324219 60.54150391 75.82523437 59.84863281 76.10546875 59.13476562 C76.74770308 57.60209723 77.4447751 56.09197908 78.17578125 54.59960938 C78.56121094 53.80876953 78.94664062 53.01792969 79.34375 52.203125 C79.70662109 51.49317383 80.06949219 50.78322266 80.44335938 50.05175781 C81.22819938 47.96084757 81.22819938 47.96084757 80.17041016 45.85742188 C79.7841748 45.24447266 79.39793945 44.63152344 79 44 C78.64679688 43.36578125 78.29359375 42.7315625 77.9296875 42.078125 C77.58164063 41.47484375 77.23359375 40.8715625 76.875 40.25 C76.25625 39.1775 75.6375 38.105 75 37 C74.34 37 73.68 37 73 37 C72.72978027 36.26265625 72.45956055 35.5253125 72.18115234 34.765625 C71.04792786 32.11222133 69.79818904 30.07164291 68.1015625 27.75 C67.53953125 26.9765625 66.9775 26.203125 66.3984375 25.40625 C65.81320313 24.6121875 65.22796875 23.818125 64.625 23 C63.75875 21.80890625 63.75875 21.80890625 62.875 20.59375 C60.00120679 16.65704697 57.08820711 12.77278504 54 9 Z M25 48 C25.99 51.3 26.98 54.6 28 58 C30.672336 54.43688534 31.77263971 52.15414253 33 48 C30.36 48 27.72 48 25 48 Z M52 130 C48.41929735 138.61311101 48.41929735 138.61311101 44.85888672 147.23461914 C44.30958009 148.5691772 43.76026368 149.90373124 43.2109375 151.23828125 C42.80112137 152.23427086 42.80112137 152.23427086 42.38302612 153.25038147 C40.738718 157.23754175 39.05939257 161.20746724 37.3515625 165.16796875 C36.60928494 166.92444111 35.86709057 168.68094863 35.125 170.4375 C34.77373047 171.22737305 34.42246094 172.01724609 34.06054688 172.83105469 C32.45697493 176.68131533 31.85137321 178.34705222 32.8046875 182.53515625 C33.19914062 183.34855469 33.59359375 184.16195312 34 185 C38.95998472 184.38367054 42.93671966 182.20164371 47.3125 179.9375 C48.42334961 179.37192383 48.42334961 179.37192383 49.55664062 178.79492188 C51.37387522 177.86871843 53.18732404 176.93509371 55 176 C55 175.34 55 174.68 55 174 C56.2065625 173.6596875 56.2065625 173.6596875 57.4375 173.3125 C60.44603046 172.20409404 62.94824262 170.98633591 65.72265625 169.41796875 C66.52582275 168.96574951 67.32898926 168.51353027 68.15649414 168.04760742 C68.76485107 167.70189697 69.37320801 167.35618652 70 167 C68.61093298 163.53891178 67.21248031 160.08168672 65.8125 156.625 C65.42513672 155.65949219 65.03777344 154.69398438 64.63867188 153.69921875 C62.36025153 148.08790254 59.91171748 142.64250814 57.11987305 137.26708984 C55.94470485 134.88805958 54.95555069 132.47444231 54 130 C53.34 130 52.68 130 52 130 Z " fill="#F6F2F2" transform="translate(71,4)"/>
</svg>
