<svg xmlns="http://www.w3.org/2000/svg" width="22.061" height="17.611"><defs><clipPath id="a"><path data-name="長方形 55" fill="#aa2828" d="M0 0h22.061v17.611H0z"/></clipPath></defs><g data-name="グループ 49" clip-path="url(#a)" fill="#aa2828"><path data-name="パス 1051" d="M14.631 5.579a2.131 2.131 0 0 0-1.5-3.824 2.13 2.13 0 0 0-4.194 0 2.131 2.131 0 0 0-1.5 3.824l2.777 2.088a1.4 1.4 0 0 1 .488-.224v-.649a.329.329 0 0 1 .657 0v.648a1.4 1.4 0 0 1 .488.224Z"/><path data-name="パス 1052" d="M17.61 12.678a2.126 2.126 0 0 0 2.1-1.741h.227a2.132 2.132 0 1 0 0-4.264h-.227a2.128 2.128 0 0 0-3.373-1.315L12.361 8.34q.024.067.04.137h1.309a.329.329 0 1 1 0 .657h-1.32a1.382 1.382 0 0 1-.04.136l3.976 2.982a2.124 2.124 0 0 0 1.284.426"/><path data-name="パス 1053" d="M15.058 15.018a2.132 2.132 0 0 0-.427-2.985l-2.785-2.089a1.4 1.4 0 0 1-.482.22v.65a.329.329 0 0 1-.657 0v-.65a1.4 1.4 0 0 1-.487-.223L7.435 12.03a2.128 2.128 0 0 0 1.5 3.825 2.13 2.13 0 0 0 4.194 0 2.13 2.13 0 0 0 1.93-.839"/><path data-name="パス 1054" d="M4.455 12.679a2.123 2.123 0 0 0 1.278-.426l3.976-2.98a1.325 1.325 0 0 1-.04-.136h-1.32a.329.329 0 0 1 0-.657h1.319q.017-.07.04-.137L5.733 5.359a2.129 2.129 0 0 0-3.374 1.314h-.227a2.132 2.132 0 1 0 0 4.264h.227a2.126 2.126 0 0 0 2.1 1.741"/></g></svg>