<svg xmlns="http://www.w3.org/2000/svg" width="261.591" height="119.011"><path data-name="合体 46" d="M33.057 118.511H19.272C8.921 118.511.5 112.48.5 105.067s8.421-13.445 18.772-13.445h125.249c9.683 0 17.56-5.411 17.56-12.061s-7.878-12.062-17.56-12.062h-25.827c-11.861 0-21.51-6.894-21.51-15.368s9.649-15.367 21.51-15.367h101.889c13.749 0 24.934-7.733 24.934-17.239S234.331 2.286 220.583 2.286h-32.448a.892.892 0 0 1-.892-.892.892.892 0 0 1 .892-.892h46.235c14.732 0 26.719 8.534 26.719 19.024S249.102 38.55 234.37 38.55H132.483a24.63 24.63 0 0 0-14.067 4.078c-3.65 2.562-5.659 5.937-5.659 9.5 0 7.49 8.849 13.583 19.726 13.583h25.827c10.667 0 19.344 6.212 19.344 13.847s-8.678 13.846-19.344 13.846H33.057c-9.367 0-16.987 5.231-16.987 11.66s7.621 11.659 16.987 11.659h39.071a.893.893 0 0 1 .892.892.893.893 0 0 1-.892.892ZM2.283 105.066c0 5.768 6.133 10.571 14.16 11.5-5.422-2.36-9.052-6.631-9.052-11.5s3.63-9.139 9.052-11.5c-8.025.928-14.16 5.732-14.16 11.5Zm6.893 0c0 5.768 6.134 10.571 14.16 11.5-5.422-2.36-9.052-6.631-9.052-11.5s3.63-9.138 9.052-11.5c-8.025.928-14.159 5.732-14.159 11.5ZM163.864 79.56c0 5.04-3.781 9.459-9.42 11.881 8.243-.989 14.528-5.941 14.528-11.881s-6.286-10.893-14.528-11.882c5.639 2.422 9.421 6.842 9.421 11.882Zm6.893 0c0 5.04-3.781 9.459-9.419 11.881 8.243-.989 14.527-5.941 14.527-11.881s-6.285-10.893-14.528-11.882c5.64 2.422 9.421 6.842 9.421 11.882Zm-71.79-27.43c0 6.594 6.859 12.105 15.921 13.329-6.457-2.655-10.813-7.635-10.813-13.329s4.356-10.674 10.813-13.329c-9.061 1.225-15.92 6.738-15.92 13.329Zm6.893 0c0 6.594 6.859 12.105 15.922 13.329-6.457-2.655-10.813-7.635-10.813-13.329 0-4.166 2.279-8.06 6.419-10.966a22.381 22.381 0 0 1 4.326-2.354c-9.031 1.243-15.853 6.743-15.853 13.32Zm148.336-32.606c0 7.262-5.744 13.587-14.168 16.792 11.032-1.776 19.276-8.631 19.276-16.792S251.06 4.509 240.028 2.733c8.425 3.206 14.169 9.529 14.169 16.791Zm-6.893 0c0 7.262-5.744 13.587-14.168 16.792 11.032-1.776 19.276-8.631 19.276-16.792s-8.244-15.015-19.276-16.791c8.425 3.206 14.169 9.529 14.169 16.791Z" fill="#fff" stroke="rgba(0,0,0,0)" stroke-miterlimit="10"/></svg>