<svg xmlns="http://www.w3.org/2000/svg" width="36.819" height="35.947"><g style="isolation:isolate"><path data-name="パス 41619" d="M18.34 18.771c.023-.079.049-.158.068-.233.023.075.049.154.072.233Z" fill="#a0a0a0"/><path data-name="パス 41620" d="M18.666 18.913h-.513l.078-.27.04-.139.125-.5.175.58.044.145Z" fill="#fff"/><path data-name="パス 41621" d="M18.412 13.377A9.315 9.315 0 1 1 32.78 23.533a9.315 9.315 0 0 0-14.053-4.769c-.083 0-.166.008-.248.008-.023-.079-.049-.158-.072-.233a9.322 9.322 0 0 1 0-5.161" fill="#b8903f"/><path data-name="パス 41622" d="m32.707 23.76-.061-.181a9.174 9.174 0 0 0-13.839-4.7l-.033.023h-.04c-.085 0-.17.008-.255.008h-.106l-.029-.1-.042-.138-.029-.094a9.473 9.473 0 0 1 0-5.24 9.483 9.483 0 0 1 9.018-6.837h.074a9.458 9.458 0 0 1 5.5 17.148Zm-8.77-6.734a9.473 9.473 0 0 1 8.914 6.282 9.176 9.176 0 0 0-5.486-16.525h-.072a9.174 9.174 0 0 0-8.748 11.716l.027.089.013.041h.1a9.362 9.362 0 0 1 4.94-1.597h.312" fill="#fff"/><path data-name="パス 41623" d="M18.479 18.772c.083 0 .166 0 .248-.008-.068.045-.136.09-.2.139l-.023-.064Z" fill="#a0a0a0"/><path data-name="パス 41624" d="m18.451 19.13-.168-.5h.2c.081 0 .161 0 .242-.008l.507-.024-.422.282c-.07.047-.135.09-.2.137Z" fill="#fff"/><path data-name="パス 41625" d="M18.602 19.14c-.03-.079-.056-.158-.083-.237.068-.049.136-.094.2-.139a9.209 9.209 0 0 1 4.9-1.592 9.314 9.314 0 1 1-5.217 16.8 9.31 9.31 0 0 0 .2-14.835" fill="#b8903f"/><path data-name="パス 41626" d="M23.941 35.947a9.432 9.432 0 0 1-5.614-1.857l-.154-.114.154-.113a9.169 9.169 0 0 0 .193-14.611l-.031-.024-.014-.037c-.031-.081-.058-.162-.085-.243l-.033-.1.084-.061c.067-.049.134-.093.2-.138a9.37 9.37 0 0 1 4.982-1.621 9.46 9.46 0 1 1 .317 18.916m-5.292-1.973a9.174 9.174 0 1 0 .158-15.093l-.115.078.034.1a9.46 9.46 0 0 1-.076 14.92" fill="#fff"/><path data-name="パス 41627" d="m18.409 18.988.06-.045c.019-.015.038-.026.056-.041.026.079.053.158.083.237-.068-.053-.132-.1-.2-.151" fill="#a0a0a0"/><path data-name="パス 41628" d="m18.918 19.56-.4-.308c-.067-.052-.13-.1-.2-.148l-.15-.109.4-.312.086.176c.025.077.051.154.081.231Z" fill="#fff"/><path data-name="パス 41629" d="M4.039 23.534a9.3 9.3 0 0 0 14.173-4.4c.064-.045.128-.094.2-.143.068.049.132.1.2.151a9.313 9.313 0 1 1-14.573 4.392" fill="#b8903f"/><path data-name="パス 41630" d="M12.88 35.947a9.475 9.475 0 0 1-8.975-12.458l.06-.181.156.111a9.164 9.164 0 0 0 13.95-4.307v-.049l.337-.247.082.059c.069.05.134.1.2.154a9.463 9.463 0 0 1-5.814 16.918M4.114 23.759a9.178 9.178 0 1 0 14.406-4.507l-.113-.087-.075.055a9.453 9.453 0 0 1-14.218 4.539" fill="#fff"/><path data-name="パス 41631" d="M18.212 19.133c.03-.075.056-.151.083-.226.019.015.038.026.056.041s.038.026.056.041c-.068.049-.132.1-.2.143" fill="#a0a0a0"/><path data-name="パス 41632" d="m17.903 19.522.177-.442c.029-.072.054-.144.079-.216l.065-.188.416.319Z" fill="#fff"/><path data-name="パス 41633" d="M9.094 9.458a9.316 9.316 0 0 1 18.2-2.816 9.315 9.315 0 0 0-8.884 11.9c-.019.075-.045.154-.068.233-.087 0-.169 0-.252-.008a9.308 9.308 0 0 1-8.993-9.306" fill="#b8903f"/><path data-name="パス 41634" d="M18.446 18.912h-.107c-.089 0-.174 0-.259-.008A9.455 9.455 0 1 1 27.426 6.6l.058.182h-.191a9.174 9.174 0 0 0-8.75 11.718l.01.037-.009.037c-.012.049-.028.1-.043.151ZM18.411.282a9.173 9.173 0 0 0-.319 18.34l.143.006.026-.089a9.449 9.449 0 0 1 6.178-11.572 9.568 9.568 0 0 1 2.658-.467A9.137 9.137 0 0 0 18.411.282" fill="#fff"/><path data-name="パス 41635" d="M.602 13.083a9.319 9.319 0 0 1 8.925-6.441 9.312 9.312 0 0 0 8.56 12.121c.068.045.139.094.207.143a5.146 5.146 0 0 1-.083.226A9.312 9.312 0 0 1 .602 13.083" fill="#b8903f"/><path data-name="パス 41636" d="M9.461 25.414A9.454 9.454 0 0 1 .468 13.04a9.421 9.421 0 0 1 8.987-6.539h.265l-.058.183a9.171 9.171 0 0 0 8.43 11.937h.041l.034.023c.069.046.142.1.211.146l.085.062-.035.1c-.026.074-.05.144-.078.215l-.005.016a9.436 9.436 0 0 1-8.884 6.23M.736 13.132a9.171 9.171 0 0 0 17.335 5.98l.01-.032c.016-.04.031-.079.045-.119l-.084-.057a9.461 9.461 0 0 1-8.705-12.12 9.138 9.138 0 0 0-8.601 6.348Z" fill="#fff"/><path data-name="パス 41637" d="M18.088 18.764c.083 0 .166.008.252.008l-.023.068-.023.068a4.275 4.275 0 0 0-.207-.143" fill="#a0a0a0"/><path data-name="パス 41638" d="m18.367 19.134-.156-.113c-.066-.048-.136-.1-.2-.14l-.422-.282.507.024c.081 0 .161.008.245.008h.2Z" fill="#fff"/><path data-name="パス 41639" d="M17.749 18.485a.141.141 0 0 1 .183.014 5.136 5.136 0 0 1 0 7.268.143.143 0 0 1-.2 0 .141.141 0 0 1 0-.2 4.854 4.854 0 0 0 0-6.869.141.141 0 0 1 0-.2.1.1 0 0 1 .017-.014" fill="#fff"/><path data-name="パス 41640" d="M17.2 24.924a1.208 1.208 0 1 1 1.209 1.208 1.208 1.208 0 0 1-1.208-1.208" fill="#fff"/><path data-name="パス 41641" d="M18.605 18.15a.141.141 0 0 1 .043.178 5.136 5.136 0 0 1-6.912 2.246.141.141 0 0 1 .129-.251 4.853 4.853 0 0 0 6.532-2.123.142.142 0 0 1 .19-.061l.019.012" fill="#fff"/><path data-name="パス 41642" d="M12.312 19.617a1.208 1.208 0 1 1-.775 1.522 1.208 1.208 0 0 1 .775-1.522" fill="#fff"/><path data-name="パス 41643" d="M19.188 18.862a.141.141 0 0 1-.156.1 5.137 5.137 0 0 1-4.272-5.88.143.143 0 0 1 .162-.117.141.141 0 0 1 .117.161 4.853 4.853 0 0 0 4.037 5.557.141.141 0 0 1 .112.183" fill="#fff"/><path data-name="パス 41644" d="M15.848 13.329a1.208 1.208 0 1 1-1.687-.267 1.208 1.208 0 0 1 1.687.267" fill="#fff"/><path data-name="パス 41645" d="M18.692 19.635a.142.142 0 0 1-.14-.119 5.137 5.137 0 0 1 4.272-5.88.141.141 0 0 1 .044.279 4.853 4.853 0 0 0-4.037 5.556.142.142 0 0 1-.117.162h-.022" fill="#fff"/><path data-name="パス 41646" d="M22.922 14.745a1.208 1.208 0 1 1-.271-1.683 1.208 1.208 0 0 1 .271 1.683" fill="#fff"/><path data-name="パス 41647" d="M17.803 19.403a.142.142 0 0 1 .07-.169 5.136 5.136 0 0 1 6.913 2.241.141.141 0 0 1-.252.128 4.854 4.854 0 0 0-6.533-2.118.141.141 0 0 1-.19-.062l-.009-.021" fill="#fff"/><path data-name="パス 41648" d="M23.757 21.915a1.208 1.208 0 1 1 1.522-.775 1.208 1.208 0 0 1-1.522.775" fill="#fff"/></g></svg>
