<svg xmlns="http://www.w3.org/2000/svg" width="92.704" height="92.705"><g fill="#aa2828"><path data-name="パス 28726" d="M92.704 46.353c0-12.9-6.51-20.364-16.735-26.741a9.008 9.008 0 0 1-2.876-2.876C66.716 6.512 59.255.001 46.352.001S25.987 6.512 19.611 16.736a9.016 9.016 0 0 1-2.876 2.876C6.51 25.989 0 33.45 0 46.353s6.51 20.364 16.735 26.741a9.018 9.018 0 0 1 2.876 2.877c6.377 10.224 13.838 16.735 26.741 16.735s20.361-6.511 26.741-16.736a9.018 9.018 0 0 1 2.876-2.877c10.226-6.376 16.735-13.837 16.735-26.74Z"/><path data-name="パス 28727" d="M46.218 4.886c9.882 0 16.276 4.081 22.807 14.553a13.721 13.721 0 0 0 4.357 4.357c10.473 6.531 14.553 12.926 14.553 22.808s-4.08 16.277-14.553 22.808a13.71 13.71 0 0 0-4.356 4.357C62.494 84.24 56.099 88.321 46.218 88.321S29.941 84.24 23.411 73.768a13.721 13.721 0 0 0-4.357-4.357C8.581 62.88 4.501 56.485 4.501 46.603s4.08-16.277 14.553-22.808a13.73 13.73 0 0 0 4.357-4.357C29.942 8.966 36.337 4.885 46.219 4.885" stroke="#fff" stroke-miterlimit="10" stroke-width="1.417"/></g></svg>
